<svg width="100" height="100" viewBox="0 0 100 100" fill="none" xmlns="http://www.w3.org/2000/svg">
<path d="M33.3332 66.6658C31.032 66.6658 29.1665 68.5312 29.1665 70.8325C29.1665 73.1337 31.032 74.9992 33.3332 74.9992C35.6343 74.9992 37.4998 73.1337 37.4998 70.8325C37.4998 68.5312 35.6343 66.6658 33.3332 66.6658ZM33.3332 66.6658L33.3626 50M33.3332 70.8325L33.3626 70.8621M83.3332 20.8333C83.3332 25.4357 79.6023 29.1667 74.9998 29.1667C70.3973 29.1667 66.6665 25.4357 66.6665 20.8333C66.6665 16.231 70.3973 12.5 74.9998 12.5C79.6023 12.5 83.3332 16.231 83.3332 20.8333ZM49.9998 70.8325C49.9998 80.0375 42.5378 87.4992 33.3332 87.4992C24.1284 87.4992 16.6665 80.0375 16.6665 70.8325C16.6665 66.6058 18.24 62.7462 20.8332 59.8083V25C20.8332 18.0965 26.4296 12.5 33.3332 12.5C40.2367 12.5 45.8332 18.0965 45.8332 25V59.8083C48.4265 62.7462 49.9998 66.6058 49.9998 70.8325Z" stroke="white" stroke-width="6" stroke-linecap="round" stroke-linejoin="round"/>
</svg>
