<svg width="18" height="18" viewBox="0 0 18 18" fill="none" xmlns="http://www.w3.org/2000/svg">
<g clip-path="url(#clip0_65_762)">
<path d="M15.6068 11.7278L15.1854 12.1493L14.3512 11.3151C14.5233 10.7766 14.6165 10.2033 14.6165 9.60849V9.027C15.4904 8.42502 16.0644 7.41776 16.0644 6.27873C16.0644 4.92282 15.251 3.75346 14.0867 3.23258C13.1632 1.26151 11.1909 0 9.00011 0C6.80928 0 4.83701 1.26151 3.91363 3.23265C2.74926 3.75353 1.93585 4.92289 1.93585 6.2788C1.93585 7.41779 2.50988 8.42509 3.38372 9.02704V9.60855C3.38372 10.2033 3.47696 10.7767 3.64908 11.3151L2.81482 12.1494L2.39334 11.7279L0.175293 13.946L4.22934 18L6.44741 15.7819L6.02593 15.3604L6.66869 14.7177C7.3562 15.0327 8.11786 15.2126 8.9196 15.224C8.94636 15.2246 8.97318 15.225 9.00011 15.225C9.02704 15.225 9.05386 15.2246 9.08062 15.224C9.88236 15.2126 10.644 15.0327 11.3315 14.7177L11.9743 15.3605L11.5528 15.7819L13.771 18L17.825 13.946L15.6068 11.7278ZM14.4706 4.83033C14.7981 5.22337 14.9955 5.72839 14.9955 6.2788C14.9955 7.21533 14.4245 8.02097 13.6123 8.36585C13.6106 8.36656 13.609 8.36722 13.6073 8.36796C13.5769 8.38076 13.5462 8.39282 13.5152 8.40435C13.5116 8.40565 13.5081 8.40705 13.5046 8.40836C13.4755 8.41897 13.4461 8.42878 13.4165 8.4382C13.4057 8.44161 13.3949 8.44495 13.384 8.44822C13.3622 8.45483 13.3403 8.46102 13.3182 8.46696C13.3018 8.47139 13.2853 8.47557 13.2688 8.47962C13.2488 8.4845 13.2288 8.48918 13.2086 8.49354C13.1945 8.4966 13.1804 8.49955 13.1662 8.50233C13.1392 8.50764 13.1121 8.51259 13.0847 8.51695C13.0728 8.51885 13.0608 8.52036 13.0489 8.52205C13.0268 8.52518 13.0046 8.52806 12.9823 8.53056C12.9717 8.53172 12.9611 8.53305 12.9505 8.53407C12.9194 8.5371 12.8881 8.53949 12.8567 8.54125C12.8483 8.5417 12.8399 8.54206 12.8316 8.54244C12.7977 8.54399 12.7636 8.54504 12.7293 8.54504H12.7293C12.1881 8.54504 11.6801 8.34834 11.2827 8.01823L14.4706 4.83033ZM12.7293 4.01256C12.7659 4.01256 12.8023 4.01358 12.8384 4.01534C12.849 4.01583 12.8595 4.01674 12.8701 4.01741C12.8961 4.01903 12.9221 4.02086 12.9479 4.02335C12.9593 4.02441 12.9706 4.02578 12.9819 4.02704C13.0075 4.02989 13.0329 4.03305 13.0582 4.03678C13.0684 4.03829 13.0787 4.03984 13.0889 4.04149C13.1163 4.04589 13.1435 4.05077 13.1706 4.05612C13.1782 4.05766 13.1859 4.05907 13.1936 4.06069C13.2259 4.06744 13.2579 4.07479 13.2897 4.08291C13.2919 4.08347 13.2942 4.08396 13.2964 4.08456C13.4014 4.1117 13.5033 4.14633 13.6018 4.18757L10.6381 7.1512C10.6365 7.14737 10.6347 7.14361 10.6331 7.13974C10.5839 7.02074 10.5447 6.89639 10.5164 6.76765L10.4241 6.34788H10.4241H7.57593L7.48372 6.76765C7.43422 6.99293 7.35104 7.20471 7.24015 7.39811C7.20858 7.45337 7.17466 7.50712 7.13862 7.55926C7.08459 7.63748 7.02573 7.71205 6.96263 7.78261C6.54195 8.25307 5.93097 8.54504 5.27102 8.54504H5.27098C5.23667 8.54504 5.20264 8.54399 5.16871 8.54244C5.16034 8.54206 5.15194 8.54174 5.14354 8.54125C5.11211 8.53949 5.08086 8.5371 5.04978 8.53407C5.03913 8.53305 5.02847 8.53172 5.01782 8.53052C4.99564 8.52803 4.97352 8.52518 4.95152 8.52209C4.93946 8.52036 4.92736 8.51882 4.91534 8.51692C4.88813 8.51259 4.86113 8.50767 4.8342 8.50236C4.81982 8.49955 4.80548 8.49653 4.79117 8.49343C4.77155 8.48918 4.75204 8.48464 4.7326 8.4799C4.7153 8.47564 4.698 8.47125 4.68078 8.46661C4.67617 8.46538 4.67171 8.46397 4.6671 8.46274L9.11725 4.01259H12.7291C12.7292 4.01256 12.7293 4.01256 12.7293 4.01256ZM9.00011 1.06889C10.4807 1.06889 11.8381 1.78042 12.6814 2.94367H5.31883C6.16209 1.78042 7.51954 1.06889 9.00011 1.06889ZM3.00477 6.2788C3.00477 5.22499 3.72776 4.33691 4.7038 4.08449C4.70595 4.08393 4.70813 4.08347 4.71031 4.08291C4.74216 4.07475 4.77433 4.06737 4.80671 4.06062C4.81427 4.05904 4.82186 4.05763 4.82945 4.05612C4.85659 4.05074 4.88395 4.04585 4.9114 4.04142C4.92156 4.0398 4.93172 4.03826 4.94188 4.03675C4.96727 4.03305 4.99275 4.02986 5.01838 4.02697C5.02967 4.02574 5.04095 4.02437 5.05224 4.02332C5.07811 4.02082 5.10413 4.01896 5.13025 4.01737C5.14076 4.01674 5.15127 4.01583 5.16179 4.01534C5.198 4.01361 5.23435 4.01256 5.27098 4.01256H5.27109H7.60578L3.70431 7.91399C3.27368 7.50122 3.00477 6.921 3.00477 6.2788ZM4.2293 16.4883L1.68694 13.946L2.39337 13.2395L3.66455 14.5107L4.93573 15.7819L4.2293 16.4883ZM5.27007 14.6046L3.57065 12.9052L4.10766 12.3682C4.5063 13.0735 5.05438 13.6866 5.71233 14.1623L5.27007 14.6046ZM6.94491 12.1009C6.94491 11.9179 6.96927 11.7405 7.01438 11.5715L7.93122 12.1009L7.01438 12.6302C6.96927 12.4612 6.94491 12.2839 6.94491 12.1009ZM8.46566 14.0851C8.11445 13.9904 7.80002 13.8051 7.54963 13.5554L8.46566 13.0266V14.0851ZM8.46566 11.1752L7.54963 10.6463C7.80005 10.3966 8.11445 10.2112 8.46566 10.1166V11.1752ZM9.53459 14.0851V13.0266L10.4506 13.5554C10.2002 13.8051 9.88577 13.9904 9.53459 14.0851ZM10.9859 12.6302L10.069 12.1009L10.9859 11.5715C11.031 11.7405 11.0553 11.9179 11.0553 12.1009C11.0553 12.2839 11.031 12.4612 10.9859 12.6302ZM9.53459 11.1752V10.1166C9.8858 10.2113 10.2002 10.3966 10.4506 10.6463L9.53459 11.1752ZM11.9794 13.0414C12.0733 12.7444 12.1241 12.4284 12.1241 12.1008C12.1241 10.3782 10.7227 8.97669 9 8.97669C7.27735 8.97669 5.87588 10.3782 5.87588 12.1008C5.87588 12.4284 5.92668 12.7444 6.02065 13.0414C5.06054 12.207 4.45251 10.9774 4.45251 9.60852V9.51223C4.6169 9.55385 4.786 9.5831 4.9589 9.59924C4.96073 9.59941 4.96252 9.59955 4.96431 9.59973C4.99388 9.60244 5.02359 9.60476 5.0534 9.60669C5.05994 9.60711 5.06648 9.60753 5.07302 9.60792C5.09882 9.60947 5.12473 9.61063 5.15068 9.61154C5.15838 9.61182 5.16607 9.61218 5.17381 9.61242C5.20608 9.61334 5.23846 9.61397 5.27098 9.61397C5.70105 9.61397 6.12556 9.52998 6.52012 9.37072C6.6078 9.33536 6.69396 9.29623 6.77841 9.25351C6.86286 9.2108 6.94551 9.16443 7.02619 9.11454C7.1472 9.03973 7.26364 8.95697 7.37463 8.86658C7.84375 8.48461 8.20059 7.98012 8.40572 7.41677H9.59453C9.7997 7.98015 10.1565 8.48461 10.6256 8.86658C11.2176 9.3485 11.9647 9.61397 12.7292 9.61397C12.7617 9.61397 12.7941 9.61337 12.8264 9.61242C12.8341 9.61221 12.8417 9.61182 12.8494 9.61154C12.8755 9.61063 12.9014 9.6094 12.9272 9.60792C12.9337 9.60753 12.9402 9.60711 12.9467 9.60666C12.9766 9.60472 13.0064 9.6024 13.036 9.59966C13.0378 9.59948 13.0395 9.59938 13.0412 9.5992C13.2141 9.5831 13.3833 9.55382 13.5476 9.51219V9.60849C13.5475 10.9775 12.9395 12.207 11.9794 13.0414ZM12.2879 14.1623C12.9458 13.6865 13.4939 13.0735 13.8926 12.3682L14.4295 12.9052L13.5798 13.7548L12.7302 14.6045L12.2879 14.1623ZM13.7709 16.4884L13.0645 15.7819L15.6068 13.2396L16.3133 13.946L13.7709 16.4884Z" fill="#D0BE31"/>
</g>
<defs>
<clipPath id="clip0_65_762">
<rect width="18" height="18" fill="white"/>
</clipPath>
</defs>
</svg>
