<svg width="18" height="18" viewBox="0 0 18 18" fill="none" xmlns="http://www.w3.org/2000/svg">
<path d="M9.6243 16.351C11.9687 15.881 15 14.1945 15 9.8334C15 5.8647 12.095 3.22195 10.0061 2.00764C9.54262 1.73818 9 2.09254 9 2.62869V4.00005C9 5.08144 8.54535 7.05533 7.28199 7.87635C6.63699 8.29552 5.94039 7.66815 5.862 6.90291L5.79763 6.27453C5.7228 5.54402 4.97881 5.10056 4.39497 5.54595C3.3461 6.34608 2.25 7.7472 2.25 9.8334C2.25 15.1667 6.21667 16.5001 8.19997 16.5001C8.31532 16.5001 8.4366 16.4966 8.56282 16.4893C7.58347 16.4056 6 15.798 6 13.8331C6 12.2962 7.1213 11.2564 7.97325 10.7509C8.20237 10.615 8.47057 10.7915 8.47057 11.0579V11.4998C8.47057 11.838 8.60137 12.3667 8.9127 12.7285C9.26505 13.138 9.78217 12.709 9.82387 12.1705C9.83707 12.0006 10.0079 11.8923 10.1551 11.9783C10.636 12.2594 11.25 12.8599 11.25 13.8331C11.25 15.3691 10.4032 16.0757 9.6243 16.351Z" fill="#D09031"/>
</svg>
