<svg width="18" height="18" viewBox="0 0 18 18" fill="none" xmlns="http://www.w3.org/2000/svg">
<path d="M2.57143 1.28572C1.28571 1.28572 0 2.57144 0 3.85715V5.14286H5.14286L6.42857 3.85715H11.5714L12.8571 5.14286H18V3.85715C18 2.57144 16.7143 1.28572 15.4286 1.28572H2.57143ZM0 6.10715V6.75001C0 6.75001 0.476197 7.71429 1.28571 7.71429H3.85714C4.58531 7.69002 5.14286 6.75001 5.14286 6.75001V6.10715H0ZM12.8571 6.10715V6.75001C12.8571 6.75001 13.4148 7.71429 14.1429 7.71429H16.7143C17.4429 7.71429 18 6.75001 18 6.75001V6.10715H12.8571ZM1.92857 10.2857C0.909806 10.2857 0 11.0231 0 12.2143C0 13.4729 0.928874 14.1429 1.92857 14.1429H3.21429C3.21429 14.1429 3.85714 14.1429 3.85714 14.7857C3.85714 15.4286 3.21429 15.4286 3.21429 15.4286H0.642857V16.7143H3.21429C4.21398 16.7143 5.14286 15.9389 5.14286 14.7455C5.14286 13.6196 4.19492 12.8571 3.21429 12.8571H1.92857C1.92857 12.8571 1.28571 12.8571 1.28571 12.2143C1.28571 11.5714 1.92857 11.5714 1.92857 11.5714H4.5V10.2857H1.92857ZM8.35714 10.2857C6.42857 10.2857 6.42857 12.2143 6.42857 12.2143V14.7857C6.42857 14.7857 6.42857 16.7143 8.35714 16.7143H9.64286C11.5714 16.7143 11.5714 14.7857 11.5714 14.7857V12.2143C11.5714 12.2143 11.5714 10.2857 9.64286 10.2857H8.35714ZM14.7857 10.2857C13.7669 10.2857 12.8571 11.0231 12.8571 12.2143C12.8571 13.4729 13.786 14.1429 14.7857 14.1429H16.0714C16.0714 14.1429 16.7143 14.1429 16.7143 14.7857C16.7143 15.4286 16.0714 15.4286 16.0714 15.4286H13.5V16.7143H16.0714C17.0711 16.7143 18 15.9389 18 14.7455C18 13.6196 17.0521 12.8571 16.0714 12.8571H14.7857C14.7857 12.8571 14.1429 12.8571 14.1429 12.2143C14.1429 11.5714 14.7857 11.5714 14.7857 11.5714H17.3571V10.2857H14.7857ZM7.71429 12.5357C7.71429 12.5357 7.71429 11.5714 8.67857 11.5714H9.32143C10.2857 11.5714 10.2857 12.5357 10.2857 12.5357V14.4643C10.2857 14.4643 10.2857 15.4286 9.32143 15.4286H8.67857C7.71429 15.4286 7.71429 14.4643 7.71429 14.4643V12.5357Z" fill="#D03131"/>
</svg>
