<svg width="18" height="18" viewBox="0 0 18 18" fill="none" xmlns="http://www.w3.org/2000/svg">
<g clip-path="url(#clip0_65_785)">
<path fill-rule="evenodd" clip-rule="evenodd" d="M11.2502 4.11188C13.4749 5.00063 15.0485 7.17638 15.0485 9.71663C15.0485 13.0461 12.3454 15.7492 9.01593 15.7492C5.68649 15.7492 2.9834 13.0461 2.9834 9.71663C2.9834 7.18819 4.54209 5.02116 6.75018 4.12453V5.34291C5.17068 6.1636 4.09068 7.81482 4.09068 9.71663C4.09068 12.4349 6.29765 14.6419 9.01593 14.6419C11.7342 14.6419 13.9412 12.4349 13.9412 9.71663C13.9412 7.80244 12.8468 6.14166 11.2502 5.32688V4.11188Z" fill="#D05931"/>
<path fill-rule="evenodd" clip-rule="evenodd" d="M9.57861 2.78043C9.57861 2.46993 9.32661 2.21793 9.01611 2.21793C8.70561 2.21793 8.45361 2.46993 8.45361 2.78043V9.53043C8.45361 9.84093 8.70561 10.0929 9.01611 10.0929C9.32661 10.0929 9.57861 9.84093 9.57861 9.53043V2.78043Z" fill="#D05931"/>
</g>
<defs>
<clipPath id="clip0_65_785">
<rect width="18" height="18" fill="white"/>
</clipPath>
</defs>
</svg>
