<svg width="100" height="100" viewBox="0 0 100 100" fill="none" xmlns="http://www.w3.org/2000/svg">
<g clip-path="url(#clip0_190_530)">
<path d="M86.704 65.1547L84.3626 67.4963L79.728 62.8615C80.6843 59.8701 81.2022 56.685 81.2022 53.3805V50.15C86.0569 46.8057 89.2462 41.2098 89.2462 34.8818C89.2462 27.349 84.7272 20.8525 78.2585 17.9588C73.128 7.0084 62.1708 0 49.9999 0C37.8286 0 26.8716 7.0084 21.7417 17.9592C15.2729 20.8529 10.754 27.3494 10.754 34.8822C10.754 41.21 13.9431 46.8061 18.7978 50.1502V53.3809C18.7978 56.6852 19.3157 59.8705 20.272 62.8619L15.6372 67.4967L13.2956 65.1551L0.973145 77.4775L23.4956 100L35.8183 87.6773L33.4767 85.3357L37.0476 81.7648C40.8671 83.5148 45.0985 84.5145 49.5526 84.5775C49.7013 84.5812 49.8503 84.5832 49.9999 84.5832C50.1495 84.5832 50.2985 84.5812 50.4472 84.5775C54.9013 84.5146 59.1327 83.5148 62.9522 81.765L66.5231 85.3359L64.1817 87.6773L76.5048 100L99.0271 77.4775L86.704 65.1547ZM80.3915 26.8352C82.2108 29.0187 83.3075 31.8244 83.3075 34.8822C83.3077 40.0852 80.1353 44.5609 75.6233 46.477C75.614 46.4809 75.6046 46.4846 75.5952 46.4887C75.4267 46.5598 75.2558 46.6268 75.0835 46.6908C75.064 46.698 75.0444 46.7059 75.0247 46.7131C74.8632 46.7721 74.6997 46.8266 74.5353 46.8789C74.4753 46.8979 74.4151 46.9164 74.355 46.9346C74.2339 46.9713 74.1118 47.0057 73.9892 47.0387C73.8981 47.0633 73.8067 47.0865 73.7149 47.109C73.604 47.1361 73.4927 47.1621 73.3806 47.1863C73.3022 47.2033 73.2235 47.2197 73.1448 47.2352C72.9946 47.2646 72.844 47.2922 72.6919 47.3164C72.6261 47.327 72.5595 47.3354 72.4935 47.3447C72.3706 47.3621 72.247 47.3781 72.123 47.392C72.0642 47.3984 72.0054 47.4059 71.9466 47.4115C71.7737 47.4283 71.5999 47.4416 71.4253 47.4514C71.3788 47.4539 71.3323 47.4559 71.2858 47.458C71.0974 47.4666 70.9083 47.4725 70.7177 47.4725H70.7175C67.7108 47.4725 64.889 46.3797 62.6812 44.5457L80.3915 26.8352ZM70.7179 22.292C70.9212 22.292 71.123 22.2977 71.3237 22.3074C71.3825 22.3102 71.4411 22.3152 71.4997 22.3189C71.6444 22.3279 71.7888 22.3381 71.9321 22.352C71.9952 22.3578 72.0581 22.3654 72.121 22.3725C72.263 22.3883 72.4042 22.4059 72.5448 22.4266C72.6017 22.435 72.6585 22.4436 72.7153 22.4527C72.8675 22.4771 73.0188 22.5043 73.169 22.534C73.2116 22.5426 73.2544 22.5504 73.297 22.5594C73.4763 22.5969 73.6544 22.6377 73.831 22.6828C73.8435 22.6859 73.856 22.6887 73.8685 22.692C74.4515 22.8428 75.0175 23.0352 75.5647 23.2643L59.1001 39.7289C59.0911 39.7076 59.0812 39.6867 59.0722 39.6652C58.7989 39.0041 58.5808 38.3133 58.4235 37.598L57.9112 35.266H57.911H42.0878L41.5755 37.598C41.3005 38.8496 40.8384 40.0262 40.2224 41.1006C40.047 41.4076 39.8585 41.7062 39.6583 41.9959C39.3581 42.4305 39.0312 42.8447 38.6806 43.2367C36.3435 45.8504 32.9491 47.4725 29.2827 47.4725H29.2825C29.0919 47.4725 28.9028 47.4666 28.7144 47.458C28.6679 47.4559 28.6212 47.4541 28.5745 47.4514C28.3999 47.4416 28.2263 47.4283 28.0536 47.4115C27.9944 47.4059 27.9353 47.3984 27.8761 47.3918C27.7528 47.3779 27.63 47.3621 27.5077 47.3449C27.4407 47.3354 27.3735 47.3268 27.3067 47.3162C27.1556 47.2922 27.0056 47.2648 26.856 47.2354C26.7761 47.2197 26.6964 47.2029 26.6169 47.1857C26.5079 47.1621 26.3995 47.1369 26.2915 47.1105C26.1954 47.0869 26.0993 47.0625 26.0036 47.0367C25.978 47.0299 25.9532 47.0221 25.9276 47.0152L50.6507 22.2922H70.7167C70.7171 22.292 70.7175 22.292 70.7179 22.292ZM49.9999 5.93828C58.2253 5.93828 65.7667 9.89121 70.4515 16.3537H29.5483C34.2331 9.89121 41.7745 5.93828 49.9999 5.93828ZM16.6925 34.8822C16.6925 29.0277 20.7091 24.0939 26.1315 22.6916C26.1435 22.6885 26.1556 22.6859 26.1677 22.6828C26.3446 22.6375 26.5233 22.5965 26.7032 22.559C26.7452 22.5502 26.7874 22.5424 26.8296 22.534C26.9804 22.5041 27.1323 22.477 27.2849 22.4523C27.3413 22.4434 27.3978 22.4348 27.4542 22.4264C27.5952 22.4059 27.7368 22.3881 27.8792 22.3721C27.9419 22.3652 28.0046 22.3576 28.0673 22.3518C28.211 22.3379 28.3556 22.3275 28.5007 22.3188C28.5591 22.3152 28.6175 22.3102 28.6759 22.3074C28.8771 22.2979 29.079 22.292 29.2825 22.292H29.2831H42.2536L20.5788 43.9666C18.1864 41.6734 16.6925 38.45 16.6925 34.8822ZM23.4954 91.6018L9.37119 77.4775L13.2958 73.5529L20.3579 80.615L27.42 87.6772L23.4954 91.6018ZM29.2774 81.1365L19.8362 71.6955L22.8196 68.7121C25.0343 72.6307 28.0792 76.0365 31.7345 78.6795L29.2774 81.1365ZM38.5821 67.227C38.5821 66.2104 38.7175 65.225 38.9681 64.2861L44.0616 67.227L38.9681 70.1678C38.7175 69.2289 38.5821 68.2437 38.5821 67.227ZM47.0308 78.2508C45.0796 77.7246 43.3327 76.6951 41.9417 75.308L47.0308 72.3699V78.2508ZM47.0308 62.0842L41.9417 59.1461C43.3329 57.759 45.0796 56.7291 47.0308 56.2033V62.0842ZM52.9692 78.2506V72.3697L58.0581 75.3078C56.6669 76.6949 54.9202 77.7246 52.9692 78.2506ZM61.0319 70.168L55.9384 67.2271L61.0319 64.2863C61.2825 65.2252 61.4179 66.2104 61.4179 67.2271C61.4179 68.2439 61.2825 69.2291 61.0319 70.168ZM52.9692 62.0842V56.2031C54.9204 56.7293 56.6673 57.7588 58.0581 59.1459L52.9692 62.0842ZM66.5513 72.452C67.0733 70.8023 67.3556 69.0469 67.3556 67.2268C67.3556 57.6564 59.5696 49.8705 49.9993 49.8705C40.429 49.8705 32.6431 57.6564 32.6431 67.2268C32.6431 69.0469 32.9253 70.802 33.4474 72.452C28.1134 67.8164 24.7354 60.9857 24.7354 53.3807V52.8457C25.6487 53.077 26.5882 53.2395 27.5487 53.3291C27.5589 53.3301 27.5688 53.3309 27.5788 53.3318C27.7431 53.3469 27.9081 53.3598 28.0737 53.3705C28.1101 53.3728 28.1464 53.3752 28.1827 53.3773C28.3261 53.3859 28.47 53.3924 28.6142 53.3975C28.6569 53.399 28.6997 53.401 28.7427 53.4023C28.922 53.4074 29.1019 53.4109 29.2825 53.4109C31.6718 53.4109 34.0302 52.9443 36.2222 52.0596C36.7093 51.8631 37.188 51.6457 37.6571 51.4084C38.1263 51.1711 38.5855 50.9135 39.0337 50.6363C39.706 50.2207 40.3528 49.7609 40.9694 49.2588C43.5757 47.1367 45.5581 44.334 46.6978 41.2043H53.3022C54.4421 44.3342 56.4241 47.1367 59.0306 49.2588C62.319 51.9361 66.4696 53.4109 70.7173 53.4109C70.8978 53.4109 71.0778 53.4076 71.2571 53.4023C71.2997 53.4012 71.3423 53.399 71.3851 53.3975C71.5296 53.3924 71.6737 53.3855 71.8173 53.3773C71.8534 53.3752 71.8896 53.3729 71.9255 53.3703C72.0913 53.3596 72.2569 53.3467 72.4216 53.3314C72.4313 53.3305 72.4407 53.3299 72.4505 53.3289C73.411 53.2395 74.3507 53.0768 75.2638 52.8455V53.3805C75.2634 60.9859 71.8855 67.8166 66.5513 72.452ZM68.2653 78.6795C71.9206 76.0363 74.9655 72.6307 77.1802 68.7121L80.1634 71.6953L75.4429 76.4158L70.7224 81.1363L68.2653 78.6795ZM76.5044 91.602L72.5798 87.6773L86.704 73.5531L90.6286 77.4777L76.5044 91.602Z" fill="white"/>
</g>
<defs>
<clipPath id="clip0_190_530">
<rect width="100" height="100" fill="white"/>
</clipPath>
</defs>
</svg>
