<svg width="100" height="100" viewBox="0 0 100 100" fill="none" xmlns="http://www.w3.org/2000/svg">
<path d="M53.4683 90.8388C66.4929 88.228 83.3333 78.8584 83.3333 54.63C83.3333 32.5817 67.1946 17.8997 55.5896 11.1536C53.0146 9.65658 50 11.6253 50 14.6039V22.2225C50 28.2303 47.4742 39.1963 40.4555 43.7575C36.8722 46.0863 33.0022 42.6009 32.5667 38.3495L32.209 34.8585C31.7933 30.8002 27.66 28.3365 24.4165 30.8109C18.5895 35.256 12.5 43.04 12.5 54.63C12.5 84.2596 34.537 91.6671 45.5554 91.6671C46.1962 91.6671 46.87 91.648 47.5712 91.6075C42.1304 91.1425 33.3333 87.7667 33.3333 76.8509C33.3333 68.3121 39.5628 62.5355 44.2958 59.7275C45.5687 58.9721 47.0587 59.953 47.0587 61.433V63.888C47.0587 65.7667 47.7854 68.7038 49.515 70.7142C51.4725 72.9892 54.3454 70.6059 54.5771 67.6138C54.6504 66.67 55.5996 66.0684 56.4171 66.5463C59.0892 68.108 62.5 71.4438 62.5 76.8509C62.5 85.3842 57.7958 89.3096 53.4683 90.8388Z" fill="white"/>
</svg>
