<svg width="100" height="100" viewBox="0 0 100 100" fill="none" xmlns="http://www.w3.org/2000/svg">
<path d="M14.2857 7.14288C7.14286 7.14288 0 14.2857 0 21.4286V28.5715H28.5714L35.7143 21.4286H64.2857L71.4286 28.5715H100V21.4286C100 14.2857 92.8571 7.14288 85.7143 7.14288H14.2857ZM0 33.9286V37.5C0 37.5 2.64554 42.8572 7.14286 42.8572H21.4286C25.474 42.7223 28.5714 37.5 28.5714 37.5V33.9286H0ZM71.4286 33.9286V37.5C71.4286 37.5 74.5265 42.8572 78.5714 42.8572H92.8571C96.9048 42.8572 100 37.5 100 37.5V33.9286H71.4286ZM10.7143 57.1429C5.05448 57.1429 0 61.2396 0 67.8572C0 74.8494 5.16041 78.5715 10.7143 78.5715H17.8571C17.8571 78.5715 21.4286 78.5715 21.4286 82.1429C21.4286 85.7144 17.8571 85.7144 17.8571 85.7144H3.57143V92.8572H17.8571C23.411 92.8572 28.5714 88.5495 28.5714 81.9197C28.5714 75.6645 23.3051 71.4286 17.8571 71.4286H10.7143C10.7143 71.4286 7.14286 71.4286 7.14286 67.8572C7.14286 64.2858 10.7143 64.2858 10.7143 64.2858H25V57.1429H10.7143ZM46.4286 57.1429C35.7143 57.1429 35.7143 67.8572 35.7143 67.8572V82.1429C35.7143 82.1429 35.7143 92.8572 46.4286 92.8572H53.5714C64.2857 92.8572 64.2857 82.1429 64.2857 82.1429V67.8572C64.2857 67.8572 64.2857 57.1429 53.5714 57.1429H46.4286ZM82.1429 57.1429C76.483 57.1429 71.4286 61.2396 71.4286 67.8572C71.4286 74.8494 76.589 78.5715 82.1429 78.5715H89.2857C89.2857 78.5715 92.8571 78.5715 92.8571 82.1429C92.8571 85.7144 89.2857 85.7144 89.2857 85.7144H75V92.8572H89.2857C94.8396 92.8572 100 88.5495 100 81.9197C100 75.6645 94.7337 71.4286 89.2857 71.4286H82.1429C82.1429 71.4286 78.5714 71.4286 78.5714 67.8572C78.5714 64.2858 82.1429 64.2858 82.1429 64.2858H96.4286V57.1429H82.1429ZM42.8571 69.6429C42.8571 69.6429 42.8571 64.2858 48.2143 64.2858H51.7857C57.1429 64.2858 57.1429 69.6429 57.1429 69.6429V80.3572C57.1429 80.3572 57.1429 85.7144 51.7857 85.7144H48.2143C42.8571 85.7144 42.8571 80.3572 42.8571 80.3572V69.6429Z" fill="white"/>
</svg>
