<svg width="18" height="18" viewBox="0 0 18 18" fill="none" xmlns="http://www.w3.org/2000/svg">
<path d="M6 11.9998C5.58579 11.9998 5.25 12.3356 5.25 12.7498C5.25 13.1641 5.58579 13.4998 6 13.4998C6.41421 13.4998 6.75 13.1641 6.75 12.7498C6.75 12.3356 6.41421 11.9998 6 11.9998ZM6 11.9998L6.0053 9M6 12.7498L6.0053 12.7552M15 3.75C15 4.57843 14.3284 5.25 13.5 5.25C12.6716 5.25 12 4.57843 12 3.75C12 2.92157 12.6716 2.25 13.5 2.25C14.3284 2.25 15 2.92157 15 3.75ZM9 12.7498C9 14.4067 7.65683 15.7498 6 15.7498C4.34314 15.7498 3 14.4067 3 12.7498C3 11.989 3.28323 11.2943 3.75 10.7655V4.5C3.75 3.25736 4.75736 2.25 6 2.25C7.24264 2.25 8.25 3.25736 8.25 4.5V10.7655C8.7168 11.2943 9 11.989 9 12.7498Z" stroke="#8831D0" stroke-linecap="round" stroke-linejoin="round"/>
</svg>
